Coordinates
version=1
nRows=26
nColumns=24
inDegrees=yes

Units are S.I. units (second, meters, Newtons, ...)
Angles are in degrees.

endheader
time	pelvis_tilt	pelvis_list	pelvis_rotation	pelvis_tx	pelvis_ty	pelvis_tz	hip_flexion_r	hip_adduction_r	hip_rotation_r	knee_angle_r	ankle_angle_r	subtalar_angle_r	mtp_angle_r	hip_flexion_l	hip_adduction_l	hip_rotation_l	knee_angle_l	ankle_angle_l	subtalar_angle_l	mtp_angle_l	lumbar_extension	lumbar_bending	lumbar_rotation
      2.48000000	     -6.75663998	      0.19553330	      0.75686429	     -0.10124965	      0.95415082	     -0.01140420	     40.82914561	     -3.39010092	    -10.64153491	    -29.05794340	     21.95973658	     -0.00000027	      0.00000000	     -5.35510917	      1.85696949	      0.02361648	     -0.01994346	      4.65752241	      0.00000022	      0.00000000	    -11.85346613	     -3.15855742	     -1.37913702
      2.49000000	     -6.78270504	      0.23878304	      1.09213398	     -0.10102963	      0.94958175	     -0.01147477	     40.93051850	     -3.37098686	    -10.57500361	    -25.60388058	     21.60332514	     -0.00000031	      0.00000000	     -7.16019675	      1.84195927	      0.48198268	      1.54694057	      4.39498295	      0.00000022	      0.00000000	    -11.81203726	     -3.04328529	     -1.55118910
      2.50000000	     -6.76900198	      0.35447039	      1.41268317	     -0.10074180	      0.94497203	     -0.01112899	     41.06389052	     -3.40247016	    -10.12545399	    -22.73227042	     21.58809821	     -0.00000034	      0.00000000	     -8.75031584	      1.83737538	      0.65607114	      2.61970745	      4.46099082	      0.00000016	      0.00000000	    -11.84124234	     -3.04249159	     -1.67458868
      2.51000000	     -6.73055560	      0.46778292	      1.74746750	     -0.10027606	      0.94021863	     -0.01099361	     41.31819211	     -3.53052020	     -9.49718638	    -20.67863650	     21.81261341	     -0.00000033	      0.00000000	    -10.08522257	      1.81475546	      0.63930298	      3.11243332	      4.83672555	      0.00000019	      0.00000000	    -11.84133813	     -2.99419778	     -1.82786269
      2.52000000	     -6.62809794	      0.61903287	      2.09598897	     -0.09975979	      0.93561690	     -0.01062689	     41.66725249	     -3.72126393	     -8.66756143	    -19.46517620	     21.68107618	     -0.00000025	      0.00000000	    -11.12496153	      1.78453481	      0.28517341	      2.87607936	      5.51627301	      0.00000018	      0.00000000	    -11.91031661	     -2.98549855	     -2.02218420
      2.53000000	     -6.48827335	      0.74884808	      2.49461159	     -0.09892178	      0.93134130	     -0.01035862	     42.05610287	     -3.93928050	     -7.91048534	    -19.01642422	     20.76885324	     -0.00000018	      0.00000000	    -11.99600045	      1.68972390	     -0.02804834	      2.24034054	      6.34926605	      0.00000031	      0.00000000	    -12.00184313	     -2.92837360	     -2.17795202
      2.54000000	     -6.30649697	      0.84208801	      2.93457848	     -0.09768839	      0.92744337	     -0.01009571	     42.38224583	     -4.12244984	     -7.29749609	    -19.21248516	     18.98919409	     -0.00000016	      0.00000000	    -12.75845887	      1.51310593	     -0.19932728	      1.29988468	      7.20940128	      0.00000027	      0.00000000	    -12.11391981	     -2.80109718	     -2.32786185
      2.55000000	     -6.10210735	      0.93291798	      3.40449376	     -0.09604773	      0.92401725	     -0.00977170	     42.63636423	     -4.26862643	     -6.71275835	    -20.05567904	     16.24967581	     -0.00000020	      0.00000000	    -13.31328363	      1.31931124	     -0.20872784	     -0.16561712	      8.38891754	      0.00000036	      0.00000000	    -12.23467689	     -2.65885618	     -2.43739918
      2.56000000	     -5.87673078	      0.98342845	      3.89848349	     -0.09394488	      0.92084764	     -0.00943835	     42.71564459	     -4.33688746	     -6.06832637	    -21.38478835	     11.35609508	     -0.00000016	      0.00000000	    -13.69678947	      1.06270334	     -0.01505838	     -1.99791340	      9.38044956	      0.00000032	      0.00000000	    -12.31558145	     -2.45304216	     -2.60902026
      2.57000000	     -5.65051170	      0.99152525	      4.37780444	     -0.09147991	      0.91800442	     -0.00901527	     42.64771532	     -4.30592440	     -5.44352675	    -23.04983362	      6.74411468	     -0.00000017	      0.00000000	    -13.87704092	      0.74158019	      0.11250639	     -4.24029878	     10.29507105	      0.00000039	      0.00000000	    -12.33811536	     -2.19340995	     -2.77162307
      2.58000000	     -5.42487420	      1.02764973	      4.79651017	     -0.08897950	      0.91571352	     -0.00837161	     42.53465582	     -4.29234631	     -4.89674558	    -24.77465369	      2.56847575	     -0.00000021	      0.00000000	    -13.69328276	      0.44873426	      0.47481526	     -7.42100016	     12.21298135	      0.00000038	      0.00000000	    -12.38486436	     -1.98941386	     -2.80561928
      2.59000000	     -5.18906186	      1.06675288	      5.14612238	     -0.08668556	      0.91429402	     -0.00751620	     42.69082740	     -4.30157218	     -4.40666914	    -27.17233694	      0.68063359	     -0.00000023	      0.00000000	    -13.36903215	      0.22792201	      0.49535094	    -10.36092555	     12.57014927	      0.00000039	      0.00000000	    -12.48239010	     -1.81055101	     -2.74124316
      2.60000000	     -4.97713713	      1.05306154	      5.46702124	     -0.08487614	      0.91385012	     -0.00661564	     42.98744484	     -4.26798606	     -3.97115915	    -29.97560859	      1.19452391	     -0.00000024	      0.00000000	    -12.29884332	     -0.03023454	      0.89422022	    -15.00203372	     15.29777999	      0.00000036	      0.00000000	    -12.62114290	     -1.57751735	     -2.65472038
      2.61000000	     -4.75708499	      0.95087872	      5.73935364	     -0.08328706	      0.91422979	     -0.00588648	     43.19374810	     -4.25245775	     -3.92168802	    -32.71017249	      2.89353732	     -0.00000018	      0.00000000	    -10.81513508	     -0.29888400	      1.03767560	    -20.26640268	     17.91621373	      0.00000034	      0.00000000	    -12.76612377	     -1.20577274	     -2.62307857
      2.62000000	     -4.56819497	      0.76397650	      5.89362716	     -0.08197234	      0.91544555	     -0.00456398	     43.04447823	     -4.10237401	     -4.11880460	    -34.78178467	      4.61333468	     -0.00000016	      0.00000000	     -9.03160497	     -0.67646713	      0.93735038	    -25.67864874	     20.12719914	      0.00000038	      0.00000000	    -12.92723960	     -0.82013070	     -2.51016903
      2.63000000	     -4.42735521	      0.56455633	      5.94028617	     -0.08076915	      0.91712088	     -0.00319299	     42.78510292	     -3.98615891	     -4.54550049	    -36.60674530	      6.71412995	     -0.00000009	      0.00000000	     -7.07438535	     -1.03650092	      0.81039600	    -31.03407243	     21.73757714	      0.00000031	      0.00000000	    -13.02467039	     -0.46088419	     -2.36781020
      2.64000000	     -4.35325779	      0.41507962	      5.88413659	     -0.07962722	      0.91913296	     -0.00159759	     42.31778198	     -3.88471308	     -4.98895654	    -38.00556887	      8.58581359	     -0.00000000	      0.00000000	     -5.17693661	     -1.35206042	      0.65261381	    -35.72761066	     21.17752781	      0.00000027	      0.00000000	    -13.05848339	     -0.21745095	     -2.17612351
      2.65000000	     -4.34729618	      0.33906161	      5.66651806	     -0.07879778	      0.92143040	      0.00041209	     41.58774466	     -3.71538993	     -5.32997993	    -38.73950948	      9.66522128	      0.00000001	      0.00000000	     -3.17961808	     -1.55812885	      0.39546250	    -40.12296457	     19.07508667	      0.00000032	      0.00000000	    -13.01935347	     -0.13253943	     -1.87797015
      2.66000000	     -4.32176390	      0.32156104	      5.30747713	     -0.07814346	      0.92382689	      0.00182961	     40.67282470	     -3.64190141	     -5.70084667	    -39.18235108	     10.39036694	      0.00000014	      0.00000000	     -1.29672848	     -1.55626192	     -0.00017430	    -43.87649053	     13.79995766	      0.00000029	      0.00000000	    -12.96759975	     -0.06722573	     -1.45006530
      2.67000000	     -4.30362651	      0.31615084	      4.98093886	     -0.07794539	      0.92652021	      0.00366994	     39.46551243	     -3.49566754	     -6.02551032	    -39.01749260	     10.26540104	      0.00000015	      0.00000000	      0.67913904	     -1.52512852	     -0.28662184	    -47.59962641	      7.46736000	      0.00000022	      0.00000000	    -12.93966586	     -0.10623729	     -1.05816305
      2.68000000	     -4.25993378	      0.30884262	      4.58659655	     -0.07797863	      0.92946724	      0.00513332	     38.14825676	     -3.35237644	     -6.30785844	    -38.66741267	     10.10035676	      0.00000021	      0.00000000	      2.68242926	     -1.44894949	     -0.71665510	    -51.20275101	      0.40540059	      0.00000017	      0.00000000	    -12.94990416	     -0.14168893	     -0.54413158
      2.69000000	     -4.20327285	      0.24432918	      4.27011166	     -0.07808004	      0.93253696	      0.00770368	     36.69046175	     -3.00156871	     -6.50898646	    -38.02196297	      9.76516626	      0.00000017	      0.00000000	      4.66897022	     -1.64034389	     -1.04042636	    -54.71522543	     -3.23697880	      0.00000014	      0.00000000	    -12.91838016	     -0.24379700	     -0.18262999
      2.70000000	     -4.27530767	      0.18588640	      3.82080025	     -0.07852895	      0.93600989	      0.00977803	     35.34366322	     -2.61936034	     -6.51341394	    -37.23351868	      9.74382566	      0.00000019	      0.00000000	      6.65163624	     -1.78695819	     -1.09948967	    -57.77036829	     -3.61393275	      0.00000022	      0.00000000	    -12.79579716	     -0.33970036	      0.34560144
      2.71000000	     -4.35913467	      0.18204622	      3.35306303	     -0.07926303	      0.93976679	      0.01179597	     34.01802919	     -2.27365816	     -6.38201889	    -36.40997431	      9.99663954	      0.00000026	      0.00000000	      8.52972175	     -1.86420041	     -0.75587824	    -60.21440402	     -2.86595790	      0.00000030	      0.00000000	    -12.67434975	     -0.50781969	      0.84860502
      2.72000000	     -4.45241581	      0.23383817	      2.88933887	     -0.08015171	      0.94372820	      0.01360079	     32.60269764	     -1.98170158	     -6.21164315	    -35.36033606	     10.07911043	      0.00000020	      0.00000000	     10.38859127	     -1.83913668	     -0.20961484	    -62.10652902	     -1.21724324	      0.00000049	      0.00000000	    -12.56013435	     -0.70603604	      1.27818791
      2.73000000	     -4.55630453	      0.34237978	      2.44289381	     -0.08116603	      0.94804128	      0.01530230	     31.05483806	     -1.73144200	     -5.94210604	    -34.02733263	     10.11393053	      0.00000027	      0.00000000	     12.27531323	     -1.76171784	      0.25691603	    -63.46494387	      0.12761461	      0.00000062	      0.00000000	    -12.47283518	     -0.97599081	      1.67421397
